<?xml version="1.0" encoding="utf-8"?>
<!-- Generator: Adobe Illustrator 22.0.1, SVG Export Plug-In . SVG Version: 6.00 Build 0)  -->
<svg version="1.1" id="Capa_1" xmlns="http://www.w3.org/2000/svg" xmlns:xlink="http://www.w3.org/1999/xlink" x="0px" y="0px"
	 viewBox="0 0 161 90" style="enable-background:new 0 0 161 90;" xml:space="preserve">
<style type="text/css">
	.st0{fill:#304A6F;}
	.st1{fill:none;stroke:#FFFFFF;stroke-width:4.3557;stroke-linecap:round;stroke-linejoin:round;stroke-miterlimit:10;}
	.st2{fill:#FBB000;stroke:#FFFFFF;stroke-width:4;stroke-linecap:round;stroke-linejoin:round;stroke-miterlimit:10;}
	.st3{fill:#FBB000;}
	.st4{fill:#BA1727;}
	.st5{fill:#FFFFFF;}
</style>
<g>
	<g>
		
			<image style="overflow:visible;enable-background:new    ;" width="190" height="81" xlink:href="78A16F0B12E4A9AD.png"  transform="matrix(0.7103 0 0 0.7103 -23.3115 54.2178)">
		</image>
	</g>
	<g>
		<path class="st0" d="M42,84.2c8.2,0.2,20.2,0.4,25.7-0.3c8.7-1.1,7.5-20.2,8.3-27.9c0.2-1.8,2.3-14.4,2.3-14.6
			c12.6-0.2,3-10.6,3-10.6L53.3,6.5c0,0-5.2-5.5-11.1-5.5h0.7c-5.8,0-11.1,5.5-11.1,5.5L4,30.9c0,0-9.6,10.4,3,10.6
			C7,41.7,9,54.3,9.2,56c0.8,7.7-0.4,26.8,8.3,27.9c5.5,0.7,17.5,0.5,25.7,0.3"/>
		<path class="st1" d="M21.8,37.7c0,0-0.5,12.3,10,12.3s11.4-7,11.4-7"/>
		<path class="st1" d="M64.5,37.7c0,0,0.5,12.3-10,12.3s-11.4-7-11.4-7"/>
		<path class="st2" d="M42.4,42.1c-0.8-0.6-15.2-13-8.3-17.5c6.9-4.5,8.7,6.6,8.7,6.6h0c0,0,1.8-11.1,8.7-6.6
			c6.9,4.5-7.5,17.2-8.3,17.8L42.4,42.1z"/>
	</g>
	<g>
		<g>
			<path class="st0" d="M90.1,55.9c0-2.1,0-6.2,0-9.5c0-3.4-0.2-8.5-0.1-10.4c0.2-0.1,0.4-0.2,0.8-0.2c0.5,0,0.9,0.2,0.9,0.9
				c0,1.8,0,5.4,0,9v0.3c1.5-0.1,3-0.1,4.5-0.1c0-3.2-0.2-8.2-0.3-9.9c0.2-0.2,0.6-0.2,1.1-0.2c0.5,0,0.8,0.3,0.8,0.9
				c0,1.8,0,6.6,0,9.9c0,3.5,0.1,8.1,0.1,9.8c-0.2,0.2-0.3,0.3-0.8,0.3c-0.6,0-0.9-0.3-0.9-0.8c0-1.9,0-5.3,0-8.3
				c-1.5,0-3-0.1-4.5,0c0,3.8,0.1,7.6,0.1,9c-0.2,0.1-0.4,0.2-0.9,0.2C90.5,56.8,90.1,56.5,90.1,55.9z"/>
			<path class="st0" d="M106.2,53.5c-0.7,2.3-1.9,3.3-3,3.3c-1.4,0-2.4-1.4-2.4-4.6c0-3.6,0-8-0.1-11.5c0.2-0.1,0.5-0.1,0.9-0.1
				c0.4,0,0.8,0.2,0.8,0.6c0.1,3.5-0.1,6.3,0,10.4c0.1,2.2,0.5,3.2,1.4,3.2c0.8,0,2.3-1.1,2.3-4.9c0-3,0-6.1-0.2-9.1
				c0.2-0.1,0.6-0.2,0.9-0.2c0.4,0,0.8,0.1,0.8,0.8c0,3.9,0,11.2,0.3,15.4c-0.3,0.2-0.5,0.3-1,0.3c-0.4,0-0.8-0.2-0.8-0.7
				L106.2,53.5z"/>
			<path class="st0" d="M111.8,49.8c0.1,3.7,0.9,5.6,2.5,5.6c0.9,0,1.4-0.7,1.6-1.3c0.1-0.1,0.3-0.2,0.6-0.2c0.4,0,0.6,0.2,0.6,0.7
				c0,0.4-0.1,0.8-0.4,1.1c-0.5,0.5-1.1,1.1-2.5,1.1c-3,0-3.9-3.5-3.9-8.4c0-5,1.4-7.9,3.6-7.9c2.1,0,3.2,2.6,3.2,7.7
				c0,0.4-0.1,1.1-0.2,1.4C115.2,49.8,113.3,49.7,111.8,49.8z M111.7,48.4c1.2,0,2.6,0,3.7-0.1c0-4-0.7-6.1-1.7-6.1
				C112.6,42.2,111.8,43.9,111.7,48.4z"/>
			<path class="st0" d="M119.5,52.9c-0.1-6,0.1-11.1,0-17.9c0.1-0.2,0.4-0.3,0.8-0.3c0.6,0,0.9,0.4,0.9,1c0,6.3-0.2,11.6-0.1,16.9
				c0,1.8,0.6,2.6,1.8,2.6c0.3,0,0.6,0,0.9-0.2c0.2,0.2,0.2,0.6,0.2,0.9c0,0.6-0.8,0.9-1.6,0.9C120.5,56.9,119.5,55.7,119.5,52.9z
				 M124.7,52.7c-0.1-6,0.1-11.5,0-18.3c0.2-0.2,0.4-0.3,0.8-0.3c0.6,0,0.9,0.4,0.9,0.9c0,6.3-0.2,12-0.1,17.3c0,1.7,0.7,2.8,2,2.8
				c0.5,0,0.8-0.1,1.1-0.3c0.2,0.2,0.4,0.5,0.4,0.9c0,0.8-0.8,1.1-1.6,1.1C126,56.9,124.8,55.4,124.7,52.7z"/>
			<path class="st0" d="M131,56.1c0.2-5,0-11.3,0.1-15.3c0.2-0.1,0.4-0.2,0.8-0.2c0.4,0,0.8,0.2,0.8,0.7c-0.1,4.5-0.1,10.8-0.1,15.5
				c-0.2,0.1-0.3,0.2-0.7,0.2C131.5,56.9,131,56.7,131,56.1z M131.3,37.7c0-0.8,0-1.5,0-2.3c0.2-0.1,0.5-0.2,0.8-0.2
				c0.4,0,0.8,0.2,0.8,0.7c0,0.8,0,1.6,0,2.4c-0.2,0.1-0.5,0.2-0.8,0.2C131.5,38.4,131.2,38.2,131.3,37.7z"/>
			<path class="st0" d="M138.1,42.2c-0.1,3.4-0.2,7-0.1,10.2c0,1.9,0.6,2.8,1.5,2.8c0.5,0,1-0.1,1.4-0.4c0.2,0.2,0.3,0.6,0.3,1
				c0,0.7-0.8,1.2-1.8,1.2c-2,0-3-1.6-3-4.5c0-3.3,0.1-6.8,0.1-10.2c-0.5,0-1,0-1.4,0c-0.5,0-0.7-0.3-0.7-0.8c0-0.4,0.2-0.8,0.3-0.8
				c0.6,0,1.2,0,1.8,0c0-1.6,0-3.1-0.1-4.5c0.2-0.1,0.5-0.2,0.9-0.2c0.5,0,0.7,0.2,0.8,0.7c0.1,1.3,0.1,2.7,0.1,4.1
				c0.8,0,1.6,0,2.4,0c0.5,0,0.7,0.3,0.7,0.7c0,0.4-0.1,0.6-0.2,0.8C140.2,42.2,139.2,42.2,138.1,42.2z"/>
			<path class="st0" d="M147.8,54.2c-0.5,1.5-1.6,2.7-2.8,2.7c-1.4,0-2.6-1.3-2.6-4.6c0-3.2,1.7-5,5.2-5.1c0-1,0-1.9,0-2.2
				c0-1.8-0.6-2.9-2-2.9c-0.9,0-1.5,0.6-1.7,1.7c-0.8,0.2-1.3-0.2-1.3-0.9c0-0.7,0.3-1.2,0.7-1.5c0.5-0.5,1.4-0.9,2.3-0.9
				c2.3,0,3.7,1.4,3.6,4c-0.1,1.8,0,10.7,0.1,12.1c-0.2,0.1-0.4,0.2-0.8,0.2c-0.5,0-0.8-0.2-0.8-0.8C147.7,56,147.7,55.1,147.8,54.2
				z M147.6,48.5c-2.7,0.2-3.7,1.3-3.7,3.8c0,1.9,0.6,3,1.5,3c1.2,0,2.3-1.7,2.2-4C147.6,50.4,147.6,49.4,147.6,48.5z"/>
			<path class="st0" d="M151.7,56c-0.2-0.2-0.4-0.6-0.4-1c0-0.4,0.3-0.8,0.7-0.8c0.4,0.3,1.1,1.1,2.2,1.1c1.2,0,2-1,2-2.2
				c0-2.6-4.6-4.7-4.6-8.3c0-2.6,1.3-4.1,3.3-4.1c0.8,0,1.6,0.2,2.1,0.7c0.3,0.2,0.5,0.6,0.5,1.1c0,0.5-0.4,0.8-0.8,0.8
				c-0.3-0.4-1-1-1.9-1c-1,0-1.6,1-1.6,2.3c0,3.2,4.7,5.1,4.7,8.5c0,2.3-1.7,3.9-3.6,3.9C153.1,56.9,152.3,56.5,151.7,56z"/>
		</g>
	</g>
	<g>
		<path class="st0" d="M118.4,69.3c0.4-1.8,1.4-3.5,3.1-3.5c1.4,0,2.1,1.4,2.1,4.4c0,3.7,0,8.3,0.2,11.8c-0.1,0.1-0.5,0.2-0.9,0.2
			c-0.5,0-0.7-0.3-0.8-0.8c-0.1-4.1,0-8.2-0.1-10.7c0-1.9-0.4-2.9-1.2-2.9c-1.8,0-2.4,3.5-2.4,4.8c-0.1,2.1,0,6,0.1,9.3
			c-0.2,0.1-0.4,0.2-0.9,0.2c-0.6,0-0.8-0.4-0.8-0.9c0.1-7.5,0-15.4-0.2-21.3c0.2-0.2,0.4-0.4,1-0.4c0.6,0,0.9,0.5,0.9,1.4
			C118.6,63.9,118.4,66.4,118.4,69.3z"/>
		<path class="st0" d="M126,74c0-5.4,1.4-8.1,3.8-8c2.1,0.1,3.5,2.8,3.5,7.5c0,6.5-1.8,8.7-3.6,8.7C127.6,82.2,126,79.6,126,74z
			 M127.6,74c0,4.3,0.8,6.6,2.1,6.7c1.1,0,2-2.5,2-7.1c0-3.6-0.7-5.9-2-5.9C128.3,67.6,127.6,69.8,127.6,74z"/>
		<path class="st0" d="M137.7,75.8c-0.2,0.3-0.2,0.7-0.2,1.2c0,0.7,0.7,1.5,1.5,2.1c2.8,2,3.7,3,3.7,5.2c0,2.2-1.8,3.7-3.9,3.7
			c-2.3,0-3.8-1.6-3.8-4.3c0-1.9,0.8-3.5,1.6-4.4c-0.4-0.5-0.7-1.1-0.7-2c0-0.9,0.3-1.7,0.7-2.2c-0.9-1-1.4-2.8-1.4-5
			c0-2.9,1.2-4.3,3.3-4.3c0.5,0,0.9,0.1,1.3,0.2c0.1-1.8,0.8-2.6,1.8-2.6c0.6,0,1,0.3,1,0.8c0,0.3-0.2,0.6-0.3,0.7
			c-0.1-0.1-0.5-0.1-0.6-0.1c-0.6,0-0.8,0.3-0.8,1.6c0.7,0.6,1.1,1.7,1.1,3.2c0,3.7-1.6,6-3.6,6C138.2,75.9,137.9,75.9,137.7,75.8z
			 M137.7,80.2c-0.5,0.7-1,1.8-1,3.4c0,1.7,0.8,3,2.2,3c1.3,0,2.2-0.9,2.2-2.2C141.1,82.6,140.2,82,137.7,80.2z M136.9,70.2
			c0,2.3,0.5,4.3,1.6,4.3c1.1,0,1.9-1.9,1.9-4.4c0-1.8-0.7-2.7-1.9-2.7C137.6,67.4,136.9,68.3,136.9,70.2z"/>
		<path class="st0" d="M149.3,79.5c-0.5,1.5-1.6,2.7-2.8,2.7c-1.4,0-2.6-1.3-2.6-4.6c0-3.2,1.7-5,5.2-5.1c0-1,0-1.9,0-2.2
			c0-1.8-0.6-2.9-2-2.9c-0.9,0-1.5,0.6-1.7,1.7c-0.8,0.2-1.3-0.2-1.3-0.9c0-0.7,0.3-1.2,0.7-1.5c0.5-0.5,1.4-0.9,2.3-0.9
			c2.3,0,3.7,1.4,3.6,4c-0.1,1.8,0,10.7,0.1,12.1c-0.2,0.1-0.4,0.2-0.8,0.2c-0.5,0-0.8-0.2-0.8-0.8
			C149.2,81.3,149.3,80.4,149.3,79.5z M149.1,73.9c-2.7,0.2-3.7,1.3-3.7,3.8c0,1.9,0.6,3,1.5,3c1.2,0,2.3-1.7,2.2-4
			C149.1,75.8,149.1,74.8,149.1,73.9z"/>
		<path class="st0" d="M155.3,82c-0.2,0.1-0.7,0.2-1.1,0.2c-0.5,0-0.8-0.2-0.8-0.8c0-4.9,0.1-10.1,0-15.2c0.2-0.1,0.4-0.3,0.8-0.3
			c0.5,0,1,0.3,0.9,0.9c0,1.2-0.1,2.5-0.2,3.8c0.6-2.3,2-4.7,3.6-4.7c1.4,0,2,1.2,2,3.4c0,0.4-0.3,0.9-0.8,0.9
			c-0.4,0-0.7-0.2-0.9-0.4c0-1.4-0.3-1.8-0.9-1.8c-1.4,0-2.9,3.2-2.9,5.5C155,76.2,155.2,79.6,155.3,82z"/>
	</g>
	<g>
		<path class="st3" d="M89.7,81.4c-0.2-0.2-0.4-0.6-0.4-1c0-0.4,0.3-0.8,0.7-0.8c0.4,0.3,1.1,1.1,2.2,1.1c1.2,0,2-1,2-2.2
			c0-2.6-4.6-4.7-4.6-8.3c0-2.6,1.3-4.1,3.3-4.1c0.8,0,1.6,0.2,2.1,0.7c0.3,0.2,0.5,0.6,0.5,1.1c0,0.5-0.4,0.8-0.8,0.8
			c-0.3-0.4-1-1-1.9-1c-1,0-1.6,1-1.6,2.3c0,3.2,4.7,5.1,4.7,8.5c0,2.3-1.7,3.9-3.6,3.9C91.1,82.2,90.3,81.9,89.7,81.4z"/>
		<path class="st3" d="M98,81.4c0.2-4.9,0-11.3,0.1-15.3c0.2-0.1,0.4-0.2,0.8-0.2c0.4,0,0.8,0.2,0.8,0.7C99.5,71,99.5,77.4,99.6,82
			c-0.2,0.1-0.3,0.2-0.7,0.2C98.5,82.2,97.9,82,98,81.4z M98.2,63c0-0.8,0-1.5,0-2.3c0.2-0.1,0.5-0.2,0.8-0.2c0.4,0,0.8,0.2,0.8,0.7
			c0,0.8,0,1.6,0,2.4c-0.2,0.1-0.5,0.2-0.8,0.2C98.5,63.8,98.2,63.5,98.2,63z"/>
		<path class="st3" d="M104.3,70c0.6-2.3,1.9-4,3.4-4c1.4,0,2.3,1.6,2.3,3.9c0,3.8-0.1,8.6,0,12.1c-0.2,0.2-0.4,0.4-0.9,0.4
			c-0.4,0-0.8-0.2-0.8-0.8c0-3.9,0.1-6.5,0.1-10.5c0-1.8-0.5-3-1.4-3c-1.2,0-2.5,2.7-2.6,5.3c0,2.7,0.1,6.1,0.2,8.6
			c-0.2,0.2-0.4,0.4-0.9,0.4c-0.6,0-0.8-0.4-0.8-0.8c0-4.9-0.1-10.4-0.3-15.3c0.2-0.1,0.4-0.3,0.9-0.3c0.6,0,0.9,0.4,0.8,0.9
			C104.3,67.7,104.3,68.9,104.3,70z"/>
	</g>
	<g>
		<g>
			<path class="st0" d="M97.2,57.2c-0.8,0-1.3-0.5-1.3-1.2l0-2c0-1.7,0-3.9,0-6c-1.2,0-2.5,0-3.8,0c0,3.6,0.1,7.3,0.1,8.6l0,0.2
				L92,56.9c-0.3,0.2-0.5,0.3-1.1,0.3c-0.7,0-1.2-0.5-1.2-1.2c0-2.1,0-6.2,0-9.5c0-1,0-2.2,0-3.4c0-2.8-0.1-5.7,0-7.1l0-0.2l0.2-0.1
				c0.3-0.1,0.5-0.2,1-0.2c0.8,0,1.3,0.5,1.3,1.3l0,1.9c0,1.9,0,4.5,0,7.1c1.4-0.1,2.6-0.1,3.8-0.1c0-3.1-0.2-7.8-0.3-9.5l0-0.2
				l0.2-0.1c0.3-0.2,0.7-0.3,1.3-0.3c0.8,0,1.2,0.5,1.2,1.3c0,0.8,0,2.1,0,3.6c0,2,0,4.4,0,6.3c0,1.9,0.1,4.2,0.1,6.1
				c0,1.6,0.1,2.9,0.1,3.7v0.2l-0.1,0.1C97.9,57.1,97.7,57.2,97.2,57.2z M92.9,47.3c1.1,0,2.3,0,3.4,0.1l0.3,0l0,0.3
				c0,2.2,0,4.5,0,6.3l0,2c0,0.2,0.1,0.5,0.6,0.5c0.2,0,0.3,0,0.4-0.1c0-0.8,0-2.1-0.1-3.5c0-1.9-0.1-4.2-0.1-6.1c0-1.9,0-4.3,0-6.3
				c0-1.5,0-2.8,0-3.6c0-0.5-0.2-0.6-0.5-0.6c-0.3,0-0.5,0-0.7,0.1c0.1,2,0.3,6.8,0.3,9.7l0,0.4l-0.4,0c-1.4,0-2.8,0-4.5,0.1l-0.4,0
				v-0.7c0-2.7,0-5.3,0-7.2l0-1.9c0-0.4-0.1-0.5-0.5-0.5c-0.2,0-0.4,0-0.5,0c0,1.4,0,4.1,0,6.8c0,1.2,0,2.4,0,3.4c0,3.2,0,7.4,0,9.5
				c0,0.3,0.2,0.5,0.5,0.5c0.3,0,0.4,0,0.5-0.1c0-1.5-0.1-5.1-0.1-8.6l0-0.6l0.4,0C92.1,47.3,92.5,47.3,92.9,47.3z"/>
		</g>
		<g>
			<path class="st0" d="M106.9,57.3c-0.7,0-1.1-0.4-1.1-1.1l0-0.9c-0.7,1.2-1.6,1.9-2.6,1.9c-0.8,0-2.8-0.5-2.8-5c0-1,0-2.1,0-3.2
				c0-2.8,0-5.8-0.1-8.2l0-0.2l0.2-0.1c0.3-0.1,0.6-0.2,1-0.2c0.6,0,1.2,0.4,1.2,1c0.1,1.8,0,3.4,0,5c0,1.6-0.1,3.3,0,5.4
				c0.1,2.8,0.8,2.8,1.1,2.8c0.8,0,2-1.2,2-4.6c0-2.9,0-6-0.2-9.1l0-0.2l0.2-0.1c0.3-0.1,0.7-0.2,1-0.2c0.7,0,1.1,0.4,1.1,1.1
				c0,3.6,0,11.2,0.3,15.3l0,0.2l-0.2,0.1C107.7,57.2,107.4,57.3,106.9,57.3z M106.6,51l-0.1,5.2c0,0.1,0,0.3,0.4,0.3
				c0.2,0,0.4,0,0.6-0.1c-0.2-4.2-0.2-11.6-0.3-15.1c0-0.3-0.1-0.4-0.4-0.4c-0.2,0-0.4,0-0.5,0.1c0.2,3,0.2,6.1,0.2,8.9
				c0,0.8-0.1,1.5-0.2,2.1L106.6,51z M101,41c0.1,2.4,0.1,5.3,0.1,8c0,1.1,0,2.2,0,3.2c0,2.7,0.8,4.3,2.1,4.3c1,0,2-1.1,2.6-3
				c-0.6,1.3-1.5,1.7-2.1,1.7c-1.5,0-1.7-2-1.8-3.5c-0.1-2.1,0-3.8,0-5.4c0-1.7,0.1-3.2,0-5c0-0.1-0.3-0.3-0.5-0.3
				S101.1,40.9,101,41z"/>
		</g>
		<g>
			<path class="st0" d="M114.1,57.2c-2.9,0-4.2-2.9-4.2-8.8c0-5.2,1.5-8.3,3.9-8.3c2.3,0,3.5,2.7,3.5,8.1c0,0.4-0.1,1.2-0.2,1.6
				l-0.1,0.2l-0.2,0c-0.5,0-1,0-1.6,0h-0.8c-0.7,0-1.4,0-2.1,0c0.2,3.3,0.8,4.9,2.1,4.9c0.7,0,1.1-0.5,1.2-1l0-0.1l0.1-0.1
				c0.2-0.2,0.5-0.3,0.8-0.3c0.6,0,1,0.4,1,1.1c0,0.5-0.2,0.9-0.5,1.4C116.3,56.6,115.6,57.2,114.1,57.2z M113.8,40.9
				c-2,0-3.2,2.9-3.2,7.5c0,5.4,1.2,8,3.5,8c1.2,0,1.8-0.5,2.2-0.9c0.2-0.3,0.3-0.5,0.3-0.9c0-0.2-0.1-0.3-0.3-0.3
				c-0.1,0-0.2,0-0.3,0c-0.2,0.7-0.9,1.4-1.9,1.4c-2.4,0-2.7-3.4-2.8-6l0-0.4l0.4,0c0.8,0,1.7,0,2.5,0h0.8c0.5,0,0.9,0,1.3,0
				c0.1-0.3,0.1-0.7,0.1-1.1C116.6,44.9,116.1,40.9,113.8,40.9z M111.4,48.8l0-0.4c0-4.4,0.8-6.6,2.3-6.6c1.7,0,2.1,3.5,2.1,6.5
				l0,0.3l-0.3,0c-0.8,0-1.6,0.1-2.5,0.1c-0.4,0-0.8,0-1.2,0L111.4,48.8z M113.7,42.6c-0.4,0-1.5,0.4-1.6,5.5c0.3,0,0.6,0,0.9,0
				c0.7,0,1.4,0,2.1-0.1C115,43.7,114.2,42.6,113.7,42.6z"/>
		</g>
		<g>
			<path class="st0" d="M122.3,57.3c-2.1,0-3.2-1.4-3.2-4.4c-0.1-3,0-5.7,0-8.6c0-2.9,0-5.9,0-9.3l0-0.1l0.1-0.1
				c0.3-0.4,0.8-0.5,1.1-0.5c0,0,0,0,0,0c0.7,0,1.2,0.5,1.2,1.3c0,2.8,0,5.5-0.1,8c0,3.1-0.1,6-0.1,8.9c0,2,0.7,2.3,1.4,2.3
				c0.3,0,0.6,0,0.8-0.1l0.2-0.1l0.2,0.2c0.3,0.3,0.3,0.8,0.3,1.2C124.3,56.7,123.5,57.3,122.3,57.3z M119.8,35.1
				c0.1,3.4,0,6.3,0,9.2c0,2.9,0,5.6,0,8.6c0.1,3.2,1.4,3.7,2.5,3.7c0.6,0,1.2-0.2,1.2-0.6c0-0.2,0-0.4-0.1-0.5
				c-0.2,0.1-0.5,0.1-0.8,0.1c-2.1,0-2.2-2.2-2.2-3c0-2.9,0-5.9,0.1-8.9c0-2.5,0.1-5.2,0.1-8c0-0.2,0-0.6-0.5-0.6
				C120,35,119.8,35.1,119.8,35.1z M128.1,57.2c-2.3,0-3.7-1.6-3.7-4.5c0-2.7,0-5.3,0-8c0-3.2,0-6.5,0-10.3l0-0.1l0.1-0.1
				c0.2-0.3,0.6-0.4,1.1-0.4h0c0.7,0,1.2,0.5,1.2,1.3c0,2.8,0,5.4-0.1,8c-0.1,3.3-0.1,6.3-0.1,9.3c0,0.7,0.2,2.4,1.6,2.4
				c0.4,0,0.6-0.1,1-0.2l0.2-0.1l0.2,0.1c0.2,0.2,0.5,0.5,0.5,1.2C130.1,56.6,129.3,57.2,128.1,57.2z M125.1,34.6
				c0.1,3.7,0,7,0,10.1c0,2.7,0,5.3,0,8c0,2.4,1.1,3.8,3,3.8c0.6,0,1.3-0.2,1.3-0.8c0-0.2,0-0.3-0.1-0.4c-0.3,0.1-0.6,0.2-1.1,0.2
				c-1.4,0-2.3-1.2-2.3-3.1c0-3,0-6.1,0.1-9.4c0-2.6,0.1-5.2,0.1-8c0-0.1,0-0.6-0.5-0.6C125.3,34.5,125.1,34.5,125.1,34.6z"/>
		</g>
		<g>
			<path class="st0" d="M131.9,57.2c-0.3,0-0.7-0.1-1-0.4c-0.2-0.2-0.3-0.5-0.3-0.8c0.1-2.7,0.1-5.8,0.1-8.7c0-2.4,0-4.7,0-6.6
				l0-0.2l0.2-0.1c0.2-0.1,0.5-0.3,1-0.3c0.3,0,0.7,0.1,0.9,0.4c0.2,0.2,0.3,0.4,0.3,0.7c-0.2,4.9-0.1,11.8-0.1,15.5l0,0.2l-0.2,0.1
				C132.6,57.1,132.4,57.2,131.9,57.2z M131.5,41c0,1.8,0,4,0,6.4c0,3,0,6.1-0.1,8.8c0,0.1,0,0.2,0.1,0.2c0.1,0.1,0.3,0.2,0.4,0.2
				c0.2,0,0.3,0,0.4,0c0-3.7-0.1-10.5,0.1-15.3c0-0.1,0-0.1-0.1-0.2c-0.1-0.1-0.2-0.1-0.4-0.1C131.7,40.9,131.6,40.9,131.5,41z
				 M132,38.8c-0.3,0-0.6-0.1-0.8-0.3c-0.2-0.2-0.3-0.5-0.3-0.8c0-0.7,0-1.4,0-2.3l0-0.2l0.2-0.1c0.3-0.2,0.6-0.3,1-0.3
				c0.6,0,1.2,0.4,1.2,1c0,0.3,0,0.6,0,1c0,0.5,0,1,0,1.4l0,0.2l-0.2,0.1C132.8,38.6,132.4,38.8,132,38.8z M131.6,35.6
				c0,0.8,0,1.4,0,2.1c0,0.1,0,0.2,0.1,0.3c0.1,0.1,0.5,0.1,0.8,0c0-0.4,0-0.8,0-1.2c0-0.3,0-0.6,0-0.9c0-0.2-0.3-0.3-0.4-0.3
				C131.9,35.5,131.7,35.5,131.6,35.6z"/>
		</g>
		<g>
			<path class="st0" d="M139.5,57.3c-1.3,0-3.4-0.6-3.4-4.8c0-1.8,0-3.7,0-5.6c0-1.4,0-2.8,0-4.2c-0.4,0-0.7,0-1,0h0
				c-0.7,0-1.1-0.4-1.1-1.1c0-0.5,0.2-1.1,0.6-1.2l0.1,0l0.1,0c0.4,0,0.9,0,1.4,0c0-1.6,0-3-0.1-4.1l0-0.2l0.2-0.1
				c0.3-0.2,0.6-0.3,1-0.3c0.7,0,1.1,0.3,1.1,1c0.1,1.1,0.1,2.4,0.1,3.7c0.7,0,1.4,0,2,0c0,0,0.1,0,0.1,0c0.6,0,1,0.4,1,1.1
				c0,0.4-0.1,0.7-0.2,0.9l-0.1,0.2l-0.3,0c-0.8,0-1.7,0-2.6,0c0,0.9,0,1.8-0.1,2.7c-0.1,2.4-0.1,4.9-0.1,7.1c0,1.6,0.4,2.4,1.1,2.4
				c0.4,0,0.9-0.1,1.2-0.3l0.2-0.1l0.2,0.2c0.3,0.3,0.4,0.7,0.4,1.2C141.6,56.6,140.7,57.3,139.5,57.3z M136.9,41.9l0,0.4
				c0,1.5,0,3,0,4.6c0,1.9,0,3.8,0,5.6c0,2.7,0.9,4.1,2.7,4.1c0.7,0,1.4-0.3,1.4-0.8c0-0.2,0-0.4-0.1-0.5c-0.4,0.2-0.9,0.3-1.3,0.3
				c-1.2,0-1.8-1-1.9-3.1c-0.1-2.3,0-4.7,0.1-7.2c0-1,0.1-2,0.1-3l0-0.3l0.3,0c0.9,0,1.9,0,2.7,0c0-0.1,0.1-0.3,0.1-0.5
				c0-0.4-0.2-0.4-0.3-0.4l-0.1,0c-0.7,0-1.6,0-2.4,0h-0.4l0-0.4c0-1.5,0-2.8-0.1-4c0-0.3-0.1-0.3-0.4-0.3c-0.2,0-0.4,0-0.5,0.1
				c0,1.2,0.1,2.6,0.1,4.3V41h-0.4c-0.6,0-1.1,0-1.6,0c-0.1,0.1-0.1,0.3-0.1,0.5c0,0.3,0.1,0.4,0.4,0.4c0.4,0,0.9,0,1.4,0
				L136.9,41.9z"/>
		</g>
		<g>
			<path class="st0" d="M148.5,57.3c-0.7,0-1.2-0.4-1.2-1.1c0,0,0-0.2,0-0.3c-0.6,0.9-1.5,1.4-2.4,1.4c-1.1,0-2.9-0.6-2.9-4.9
				c0-3.4,1.8-5.3,5.2-5.4c0-0.5,0-0.9,0-1.3l0-0.6c0-1.7-0.5-2.5-1.6-2.5c-0.5,0-1.1,0.2-1.3,1.4l0,0.2l-0.2,0.1
				c-0.6,0.2-1.1,0.1-1.4-0.3c-0.2-0.2-0.3-0.6-0.3-1c0-0.9,0.4-1.4,0.8-1.7c0.5-0.6,1.5-1,2.5-1c1.2,0,2.2,0.4,2.9,1.1
				c0.7,0.8,1.1,1.9,1.1,3.3c-0.1,1.9,0,10.8,0.1,12.1l0,0.2l-0.2,0.1C149.3,57.1,149,57.3,148.5,57.3z M148.2,51.8l-0.1,2.4
				c0,0.9-0.1,1.8-0.1,1.9c0,0.2,0.1,0.4,0.4,0.4c0.2,0,0.4,0,0.4-0.1c-0.1-1.9-0.1-10.1-0.1-11.9c0-1.2-0.3-2.2-0.9-2.8
				c-0.6-0.6-1.4-0.9-2.4-0.9c-0.8,0-1.6,0.3-2,0.8c-0.4,0.4-0.6,0.8-0.6,1.2c0,0.2,0,0.4,0.1,0.5c0.1,0.1,0.3,0.2,0.5,0.1
				c0.3-1.2,1-1.8,2-1.8c0.9,0,2.3,0.4,2.3,3.2l0,0.6c0,0.4,0,1,0,1.6v0.4l-0.4,0c-3.3,0.1-4.8,1.6-4.8,4.7c0,2.7,0.8,4.2,2.2,4.2
				c1,0,1.9-1,2.4-2.4l0,0c-0.2,0.4-0.4,0.7-0.7,1c-0.4,0.4-0.9,0.6-1.4,0.6c-1.2,0-1.9-1.3-1.9-3.3c0-2.7,1.2-4,4.1-4.1l0.4,0v0.4
				c0,0.9,0,1.9,0,2.8c0,0.6-0.1,1.1-0.2,1.6L148.2,51.8z M147.2,48.9c-2.2,0.2-3,1.2-3,3.4c0,1.6,0.5,2.6,1.2,2.6
				c0.4,0,0.7-0.2,0.9-0.4c0.6-0.6,1-1.9,1-3.2C147.2,50.6,147.2,49.7,147.2,48.9z"/>
		</g>
		<g>
			<path class="st0" d="M154.2,57.2c-1.1,0-2-0.3-2.7-0.9c-0.3-0.3-0.6-0.8-0.6-1.2c0-0.6,0.5-1.2,1.1-1.2l0.1,0l0.1,0.1
				c0.1,0,0.1,0.1,0.2,0.2c0.4,0.3,0.9,0.8,1.7,0.8c1,0,1.6-0.8,1.6-1.9c0-1.1-0.9-2.1-1.9-3.2c-1.3-1.4-2.7-3-2.7-5.1
				c0-2.7,1.4-4.4,3.7-4.4c1,0,1.8,0.3,2.4,0.8c0.3,0.2,0.6,0.6,0.6,1.4c0,0.7-0.6,1.2-1.2,1.2h-0.2l-0.1-0.2
				c-0.1-0.1-0.7-0.9-1.6-0.9c-0.9,0-1.3,1-1.3,1.9c0,1.5,1.1,2.6,2.2,3.9c1.2,1.3,2.5,2.7,2.5,4.6
				C158.2,55.4,156.5,57.2,154.2,57.2z M151.9,54.6c-0.2,0.1-0.3,0.3-0.3,0.4c0,0.3,0.2,0.6,0.3,0.7c0.6,0.5,1.3,0.8,2.2,0.8
				c1.9,0,3.3-1.5,3.3-3.5c0-1.6-1.1-2.8-2.3-4.1c-1.2-1.3-2.4-2.6-2.4-4.4c0-1.6,0.8-2.6,2-2.6c0.9,0,1.6,0.5,2.1,1
				c0.2-0.1,0.3-0.2,0.3-0.5c0-0.4-0.1-0.6-0.3-0.8c-0.6-0.5-1.4-0.6-1.9-0.6c-1.8,0-2.9,1.4-2.9,3.7c0,1.8,1.3,3.3,2.5,4.6
				c1.1,1.2,2.1,2.4,2.1,3.7c0,1.5-1,2.6-2.4,2.6C153.1,55.7,152.4,55,151.9,54.6C151.9,54.7,151.9,54.6,151.9,54.6z"/>
		</g>
	</g>
	<g>
		<g>
			<path class="st0" d="M122.9,82.6c-0.7,0-1.1-0.4-1.1-1.1c-0.1-2.6-0.1-5.3-0.1-7.5c0-1.2,0-2.3,0-3.2c0-1.7-0.3-2.5-0.8-2.5
				c-1.5,0-2,3.3-2.1,4.4c-0.1,2.3,0,6.2,0.1,9.3l0,0.2l-0.2,0.1c-0.2,0.1-0.5,0.3-1.1,0.3c-0.7,0-1.1-0.5-1.1-1.2
				c0.1-8.4,0-16-0.2-21.3l0-0.2l0.1-0.1c0.3-0.2,0.6-0.5,1.2-0.5c0.4,0,1.2,0.2,1.3,1.7c0,1.5,0,2.9-0.1,4.3c0,0.7,0,1.3-0.1,2
				c0.7-1.2,1.6-1.8,2.7-1.8c0.6,0,1,0.2,1.4,0.6c0.7,0.7,1.1,2.1,1,4.2c0,3.4,0,8.1,0.2,11.8l0,0.2l-0.2,0.1
				C123.8,82.5,123.3,82.6,122.9,82.6z M120.9,67.5c1.3,0,1.5,1.7,1.5,3.2c0,0.9,0,2,0,3.2c0,2.2,0,4.9,0.1,7.5
				c0,0.4,0.1,0.4,0.4,0.4c0.2,0,0.4,0,0.5-0.1c-0.1-3.7-0.2-8.2-0.2-11.6c0-1.9-0.3-3.1-0.8-3.7c-0.2-0.2-0.5-0.4-0.9-0.4
				c-1.8,0-2.5,2-2.8,3.2l0,0.2C119.2,68.5,119.8,67.5,120.9,67.5z M117.1,60.2c0.2,5.3,0.2,12.9,0.2,21.2c0,0.5,0.3,0.5,0.4,0.5
				c0.2,0,0.4,0,0.5-0.1c-0.1-3.1-0.1-6.9-0.1-9.2c0,0,0-0.3,0.1-0.7l-0.1,0.4l0-3c0-1.4,0-2.8,0.1-4.1c0-1.4,0.1-2.8,0.1-4.3
				c0-0.5-0.1-1-0.5-1C117.4,60,117.2,60.1,117.1,60.2z"/>
		</g>
		<g>
			<path class="st0" d="M129.8,82.6c-2.6,0-4.1-3.1-4.1-8.6c0-3.7,0.6-6.2,1.9-7.4c0.6-0.6,1.4-0.9,2.2-0.9l0.1,0
				c2.4,0.1,3.9,3,3.9,7.9c0,4-0.7,6.9-2,8.2C131.1,82.3,130.5,82.6,129.8,82.6z M129.8,66.3c-0.7,0-1.3,0.2-1.7,0.7
				c-1.1,1.1-1.7,3.5-1.7,6.9c0,5,1.3,7.9,3.4,7.9c0.5,0,1-0.2,1.4-0.6c0.8-0.8,1.8-2.9,1.8-7.7C133,69.1,131.8,66.4,129.8,66.3
				L129.8,66.3z M129.8,81L129.8,81c-1.7-0.1-2.5-2.4-2.5-7c0-4.4,0.8-6.7,2.5-6.7h0c1.5,0,2.4,2.2,2.4,6.2c0,3.6-0.5,6.1-1.4,7.1
				C130.4,80.9,130.1,81,129.8,81z M129.7,67.6l0,0.4c-1.1,0-1.8,2.1-1.8,6c0,4,0.7,6.3,1.8,6.3l0,0c0.1,0,0.3-0.1,0.4-0.2
				c0.6-0.6,1.3-2.7,1.2-6.6c0-3.4-0.7-5.5-1.7-5.5L129.7,67.6L129.7,67.6z"/>
		</g>
		<g>
			<path class="st0" d="M138.8,88.4c-2.6,0-4.1-1.8-4.1-4.7c0-1.7,0.6-3.3,1.5-4.4c-0.4-0.6-0.6-1.2-0.6-1.9c0-0.8,0.2-1.6,0.6-2.2
				c-0.8-1.1-1.3-2.8-1.3-5c0-3.9,2-4.7,3.6-4.7c0.3,0,0.7,0,1,0.1c0.2-2,1.3-2.5,2.1-2.5c0.8,0,1.4,0.5,1.4,1.2
				c0,0.4-0.1,0.7-0.4,1l-0.2,0.2l-0.2-0.1c-0.1,0-0.3-0.1-0.5-0.1c-0.2,0-0.4,0-0.5,1.1c0.7,0.7,1.1,1.9,1.1,3.4
				c0,3.8-1.6,6.4-3.9,6.4c-0.2,0-0.4,0-0.6-0.1c-0.1,0.2-0.1,0.4-0.1,0.8c0,0.5,0.5,1.2,1.4,1.8c2.9,2,3.9,3.1,3.9,5.5
				C143.1,86.7,141.2,88.4,138.8,88.4z M138.6,66.3c-2,0-2.9,1.3-2.9,3.9c0,2.1,0.5,3.8,1.3,4.7l0.2,0.2l-0.2,0.2
				c-0.4,0.5-0.6,1.2-0.6,2c0,0.7,0.2,1.2,0.6,1.7l0.2,0.3l-0.2,0.2c-1,1-1.5,2.5-1.5,4.1c0,2.5,1.2,4,3.4,4c2,0,3.5-1.4,3.5-3.3
				c0-2-0.7-2.9-3.6-4.9c-0.5-0.4-1.7-1.3-1.7-2.4c0-0.6,0.1-1,0.3-1.4l0.1-0.3l0.3,0.1c0.2,0.1,0.5,0.1,0.7,0.1
				c1.9,0,3.2-2.4,3.2-5.7c0-1.4-0.3-2.4-1-3l-0.1-0.1l0-0.2c0.1-1.1,0.2-2,1.2-2c0.1,0,0.3,0,0.5,0.1c0.1-0.1,0.1-0.2,0.1-0.3
				c0-0.4-0.4-0.5-0.7-0.5c-0.3,0-1.3,0-1.4,2.2l0,0.5l-0.4-0.1C139.4,66.3,139,66.3,138.6,66.3z M138.9,86.9
				c-1.6,0-2.6-1.3-2.6-3.3c0-1.5,0.4-2.8,1-3.7l0.2-0.3L138,80c2.5,1.8,3.4,2.5,3.4,4.4C141.4,85.9,140.4,86.9,138.9,86.9z
				 M137.7,80.7c-0.3,0.5-0.7,1.4-0.7,2.9c0,1.3,0.5,2.6,1.8,2.6c1.1,0,1.8-0.7,1.8-1.9C140.7,82.9,140,82.3,137.7,80.7z
				 M138.5,74.8c-1.2,0-2-1.7-2-4.6c0-2,0.8-3.2,2.1-3.2c0.8,0,2.2,0.4,2.2,3.1C140.8,72.8,139.8,74.8,138.5,74.8z M138.6,67.7
				c-1.2,0-1.3,1.7-1.3,2.4c0,2.3,0.5,3.9,1.3,3.9c0.7,0,1.6-1.7,1.6-4C140.1,67.7,139,67.7,138.6,67.7z"/>
		</g>
		<g>
			<path class="st0" d="M150,82.6c-0.7,0-1.2-0.4-1.2-1.1c0,0,0-0.2,0-0.3c-0.6,0.9-1.5,1.4-2.4,1.4c-1.1,0-2.9-0.6-2.9-4.9
				c0-3.4,1.8-5.3,5.2-5.4c0-0.5,0-0.9,0-1.3l0-0.6c0-1.7-0.5-2.5-1.6-2.5c-0.5,0-1.1,0.2-1.3,1.4l0,0.2l-0.2,0.1
				c-0.6,0.2-1.1,0.1-1.4-0.3c-0.2-0.2-0.3-0.6-0.3-1c0-0.9,0.4-1.4,0.8-1.7c0.5-0.6,1.5-1,2.5-1c1.2,0,2.2,0.4,2.9,1.1
				c0.7,0.8,1.1,1.9,1.1,3.3c-0.1,1.9,0,10.8,0.1,12.1l0,0.2l-0.2,0.1C150.8,82.5,150.5,82.6,150,82.6z M149.7,77.2l-0.1,2.4
				c0,0.9-0.1,1.8-0.1,1.9c0,0.2,0.1,0.4,0.4,0.4c0.2,0,0.3,0,0.4-0.1c-0.1-1.9-0.1-10.1-0.1-11.9c0-1.2-0.3-2.2-0.9-2.8
				c-0.6-0.6-1.4-0.9-2.4-0.9c-0.8,0-1.6,0.3-2,0.8c-0.4,0.4-0.6,0.8-0.6,1.2c0,0.2,0.1,0.4,0.1,0.5c0.1,0.1,0.3,0.2,0.5,0.1
				c0.3-1.2,0.9-1.8,2-1.8c0.9,0,2.3,0.4,2.3,3.2l0,0.6c0,0.4,0,1,0,1.6v0.4l-0.4,0c-3.3,0.1-4.8,1.6-4.8,4.7c0,2.7,0.8,4.2,2.2,4.2
				c1,0,1.9-0.9,2.4-2.4l0,0c-0.2,0.4-0.4,0.7-0.7,1c-0.4,0.4-0.9,0.6-1.4,0.6c-1.2,0-1.9-1.3-1.9-3.3c0-2.7,1.2-4,4.1-4.1l0.4,0
				v0.4c0,0.9,0,1.9,0,2.8c0,0.6-0.1,1.1-0.2,1.6L149.7,77.2z M148.8,74.2c-2.2,0.2-3,1.2-3,3.4c0,1.6,0.5,2.6,1.2,2.6
				c0.4,0,0.7-0.2,0.9-0.4c0.6-0.6,1-1.9,1-3.2C148.8,75.9,148.8,75.1,148.8,74.2z"/>
		</g>
		<g>
			<path class="st0" d="M154.3,82.6c-0.7,0-1.2-0.4-1.2-1.2c0-1.5,0-2.9,0-4.4c0-3.5,0.1-7.2-0.1-10.8l0-0.2l0.2-0.1
				c0.2-0.1,0.5-0.3,1-0.3c0.4,0,0.8,0.2,1,0.4c0.1,0.2,0.3,0.4,0.3,0.9c0,0.5,0,1-0.1,1.5c0.8-1.6,1.9-2.8,3.2-2.8
				c2.3,0,2.3,2.8,2.4,3.7c0,0.7-0.5,1.2-1.2,1.2c-0.5,0-0.9-0.2-1.2-0.6l-0.1-0.1l0-0.1c0-1.5-0.3-1.5-0.5-1.5
				c-1.1,0-2.5,2.9-2.6,5.2c-0.1,2.7,0,6.1,0.2,8.5l0,0.2l-0.2,0.1C155.2,82.5,154.7,82.6,154.3,82.6z M153.8,66.4
				c0.1,3.6,0.1,7.1,0.1,10.6c0,1.5,0,2.9,0,4.4c0,0.4,0.1,0.5,0.4,0.5c0.2,0,0.5,0,0.7-0.1c-0.1-2.4-0.3-5.7-0.2-8.3
				c0-0.2,0-0.4,0.1-0.6l-0.3,1.2l0.1-3.4c0-0.7,0.1-1.4,0.1-2.2c0-0.6,0.1-1.1,0.1-1.7c0-0.2,0-0.3-0.1-0.4
				c-0.1-0.1-0.3-0.2-0.5-0.2C154,66.3,153.9,66.3,153.8,66.4z M158.6,66.3c-1.4,0-2.7,2.1-3.2,4.3c0.6-1.6,1.6-3,2.7-3
				c1,0,1.2,1,1.2,2c0.1,0.1,0.3,0.2,0.5,0.2c0.3,0,0.5-0.3,0.5-0.5C160.2,66.7,159.4,66.3,158.6,66.3z"/>
		</g>
	</g>
	<g>
		<g>
			<path class="st3" d="M92.2,82.6c-1.1,0-2-0.3-2.7-0.9c-0.3-0.3-0.6-0.8-0.6-1.2c0-0.6,0.5-1.2,1.1-1.2l0.1,0l0.1,0.1
				c0.1,0,0.1,0.1,0.2,0.2c0.4,0.3,0.9,0.8,1.7,0.8c1,0,1.6-0.8,1.6-1.9c0-1.1-0.9-2.1-1.9-3.2c-1.3-1.4-2.7-3-2.7-5.1
				c0-2.7,1.4-4.4,3.7-4.4c1,0,1.8,0.3,2.4,0.8c0.3,0.2,0.6,0.6,0.6,1.4c0,0.7-0.6,1.2-1.2,1.2h-0.2l-0.1-0.1
				c-0.1-0.1-0.7-0.9-1.6-0.9c-0.9,0-1.3,1-1.3,1.9c0,1.5,1.1,2.6,2.2,3.9c1.2,1.3,2.5,2.7,2.5,4.6C96.2,80.7,94.5,82.6,92.2,82.6z
				 M89.9,80c-0.2,0.1-0.3,0.3-0.3,0.4c0,0.3,0.2,0.6,0.3,0.7c0.6,0.5,1.3,0.8,2.2,0.8c1.9,0,3.3-1.5,3.3-3.5c0-1.6-1.1-2.8-2.3-4.1
				c-1.2-1.3-2.4-2.6-2.4-4.4c0-1.6,0.8-2.6,2-2.6c0.9,0,1.6,0.5,2.1,1c0.2-0.1,0.3-0.2,0.3-0.5c0-0.4-0.1-0.6-0.3-0.8
				c-0.6-0.5-1.4-0.6-1.9-0.6c-1.8,0-2.9,1.4-2.9,3.7c0,1.8,1.3,3.3,2.5,4.6c1.1,1.2,2.1,2.4,2.1,3.7c0,1.5-1,2.6-2.4,2.6
				C91.1,81,90.4,80.4,89.9,80C90,80,90,80,89.9,80z"/>
		</g>
		<g>
			<path class="st3" d="M98.8,82.6c-0.3,0-0.7-0.1-1-0.4c-0.2-0.2-0.3-0.5-0.3-0.8c0.1-2.7,0.1-5.8,0.1-8.7c0-2.4,0-4.7,0-6.6l0-0.2
				l0.2-0.1c0.2-0.1,0.5-0.3,1-0.3c0.3,0,0.7,0.1,0.9,0.4c0.2,0.2,0.3,0.4,0.3,0.7c-0.2,4.9-0.1,11.8-0.1,15.4l0,0.2l-0.2,0.1
				C99.6,82.5,99.3,82.6,98.8,82.6z M98.4,66.3c0,1.8,0,4,0,6.4c0,3,0,6.1-0.1,8.8c0,0.1,0,0.2,0.1,0.2c0.1,0.1,0.3,0.2,0.4,0.2
				c0.2,0,0.3,0,0.4,0c0-3.7-0.1-10.5,0.1-15.3c0-0.1,0-0.1-0.1-0.2c-0.1-0.1-0.2-0.1-0.4-0.1C98.6,66.3,98.5,66.3,98.4,66.3z
				 M98.9,64.1c-0.3,0-0.6-0.1-0.8-0.3c-0.2-0.2-0.3-0.5-0.3-0.8c0-0.7,0-1.4,0-2.3l0-0.2l0.2-0.1c0.3-0.2,0.6-0.3,1-0.3
				c0.6,0,1.2,0.4,1.2,1c0,0.3,0,0.6,0,1c0,0.5,0,1,0,1.4l0,0.2l-0.2,0.1C99.7,64,99.4,64.1,98.9,64.1z M98.6,60.9
				c0,0.8,0,1.4,0,2.1c0,0.1,0,0.2,0.1,0.3c0.1,0.1,0.5,0.1,0.8,0c0-0.4,0-0.8,0-1.2c0-0.3,0-0.6,0-0.9c0-0.2-0.3-0.3-0.4-0.3
				C98.8,60.8,98.7,60.9,98.6,60.9z"/>
		</g>
		<g>
			<path class="st3" d="M109.1,82.6c-0.6,0-1.2-0.4-1.2-1.2c0-1.8,0-3.3,0.1-4.8c0-1.8,0.1-3.6,0-5.7c0-0.8-0.1-2.6-1-2.6
				c-0.8,0-2.2,2.3-2.2,5c0,2.8,0.1,6.2,0.2,8.6l0,0.1l-0.1,0.1c-0.2,0.2-0.5,0.5-1.1,0.5c-0.8,0-1.2-0.6-1.2-1.1
				c0-5.3-0.1-10.5-0.3-15.3l0-0.2l0.1-0.1c0.3-0.3,0.7-0.4,1.2-0.4c0.4,0,0.7,0.1,0.9,0.4c0.2,0.2,0.3,0.6,0.3,0.9
				c0,0.4,0,0.8,0,1.2c0.8-1.5,1.9-2.4,3-2.4c1.6,0,2.6,1.7,2.7,4.2c0,1.3,0,2.7,0,4.2c0,2.8-0.1,5.6,0.1,7.9l0,0.1l-0.1,0.1
				C110.1,82.3,109.7,82.6,109.1,82.6z M107,67.6c0.8,0,1.7,0.6,1.7,3.4c0,2.2,0,3.9,0,5.8c0,1.5,0,3,0,4.7c0,0.4,0.3,0.4,0.5,0.4
				c0.3,0,0.4-0.1,0.5-0.1c-0.1-2.3-0.1-5.1,0-7.8c0-1.4,0-2.8,0-4.1c0-2.1-0.8-3.5-1.9-3.5c-1.2,0-2.5,1.6-3,3.8l0,0.1
				C105.2,68.7,106,67.6,107,67.6z M102.9,66.4c0.2,4.7,0.3,9.8,0.3,15.1c0,0.4,0.4,0.4,0.5,0.4c0.2,0,0.4,0,0.5-0.1
				c-0.1-2.4-0.2-5.8-0.2-8.5c0-0.3,0-0.7,0.1-1l-0.1,0.6l0-2.8c0-1,0-2.3,0-3.3c0-0.2,0-0.3-0.1-0.4c-0.1-0.1-0.2-0.1-0.4-0.1
				C103.2,66.2,103,66.3,102.9,66.4z"/>
		</g>
	</g>
</g>
<g>
	<path class="st4" d="M64.7,87.8V57.5c-6.3,2.2-10.7,8.2-10.7,15.2C53.9,79.7,58.4,85.6,64.7,87.8z"/>
	<path class="st4" d="M86.1,72.7c0-7-4.4-12.9-10.7-15.1v30.3C81.6,85.6,86.1,79.6,86.1,72.7z"/>
	<path class="st5" d="M64.7,57.5v30.3c1.7,0.6,3.5,0.9,5.3,0.9c1.9,0,3.7-0.3,5.4-0.9V57.5c-1.7-0.6-3.5-0.9-5.4-0.9
		C68.1,56.6,66.3,56.9,64.7,57.5z"/>
</g>
</svg>
